<svg xmlns="http://www.w3.org/2000/svg" viewBox="0 0 25.44 23.3"><defs><style>.cls-1{fill:green;}</style></defs><title>Asset 1</title><g id="Layer_2" data-name="Layer 2"><g id="Layer_1-2" data-name="Layer 1"><path class="cls-1" d="M16.1,13.8a4.34,4.34,0,0,1-3-1.3c-1.3-1.3-2.7-4,1.3-8C17.6,1.3,24.3.2,24.6,0c.3,0,.5,0,.6.2s.3.5.2.6c0,.3-1.3,7-4.5,10.2C19.3,12.9,17.7,13.8,16.1,13.8Zm7.7-12c-2.1.5-6.1,1.6-8.3,3.7-2.4,2.4-2.7,4.3-1.3,5.8,1.6,1.6,3.5,1.1,5.8-1.3C22.1,7.9,23.3,3.8,23.8,1.8Z"/><path class="cls-1" d="M12.1,22.5H10.5a21.53,21.53,0,0,1,3.2-10.6l1.4.8A19.46,19.46,0,0,0,12.1,22.5Z"/><path class="cls-1" d="M7.5,11.9A6.3,6.3,0,0,1,4,10.5C1.4,8.4.2,3.8,0,3.6a1.2,1.2,0,0,1,.2-.8.71.71,0,0,1,.6-.3c.2,0,5.1.3,7.7,2.2a5.69,5.69,0,0,1,2.4,3.4,2.94,2.94,0,0,1-.8,2.4A3.28,3.28,0,0,1,7.5,11.9ZM1.9,4.2a13.89,13.89,0,0,0,3,5c1.6,1.3,2.9,1.6,3.8.5.3-.5.5-.8.3-1.3A5.19,5.19,0,0,0,7.2,6C6.1,4.9,3.5,4.4,1.9,4.2Z"/><path class="cls-1" d="M12.9,17.7H11.3a10.49,10.49,0,0,0-2.7-7l1.3-1A13.48,13.48,0,0,1,12.9,17.7Z"/><path class="cls-1" d="M14.5,23.3H8.3a.8.8,0,1,1,0-1.6h6.2a.8.8,0,0,1,0,1.6Z"/></g></g></svg>