<?xml version="1.0" encoding="utf-8"?>
<!-- Generator: Adobe Illustrator 16.0.0, SVG Export Plug-In . SVG Version: 6.00 Build 0)  -->
<!DOCTYPE svg PUBLIC "-//W3C//DTD SVG 1.1//EN" "http://www.w3.org/Graphics/SVG/1.1/DTD/svg11.dtd">
<svg version="1.1" id="Capa_1" xmlns="http://www.w3.org/2000/svg" xmlns:xlink="http://www.w3.org/1999/xlink" x="0px" y="0px"
	 width="31px" height="26.271px" viewBox="0.352 2.016 31 26.271" enable-background="new 0.352 2.016 31 26.271"
	 xml:space="preserve">
<g>
	<path d="M31.345,7.521c-0.026-0.151-0.126-0.279-0.266-0.342L19.697,2.057c-0.166-0.075-0.36-0.045-0.496,0.075l-3.35,2.965
		l-3.349-2.965c-0.136-0.12-0.33-0.15-0.496-0.075L0.625,7.18c-0.14,0.063-0.239,0.191-0.266,0.342
		C0.332,7.672,0.382,7.826,0.492,7.933l3.596,3.487L2.061,15c-0.125,0.222-0.048,0.503,0.173,0.629l1.971,1.124v4.599
		c0,0.165,0.088,0.318,0.23,0.4l11.186,6.472c0.071,0.041,0.151,0.062,0.231,0.062c0.076,0,0.152-0.019,0.221-0.057l0,0
		l11.196-6.477c0.143-0.082,0.23-0.235,0.23-0.4v-4.598l1.971-1.125c0.221-0.126,0.298-0.408,0.173-0.629l-2.027-3.579l3.596-3.488
		C31.321,7.826,31.371,7.672,31.345,7.521z M19.981,14.698l-3.668-2.124V6.463l9.732,4.893L19.981,14.698z M5.658,11.356
		l9.732-4.893v6.111l-3.667,2.124L5.658,11.356z M1.624,7.744l10.49-4.721l2.92,2.585L4.752,10.777L1.624,7.744z M3.092,15.055
		l1.751-3.092l10.315,5.684l-2.289,2.989L3.092,15.055z M15.389,27.023L5.128,21.086v-3.804l7.633,4.356
		c0.072,0.041,0.151,0.061,0.229,0.061c0.139,0,0.277-0.063,0.367-0.182l2.031-2.652L15.389,27.023L15.389,27.023z M15.852,16.974
		l-3.184-1.754l3.184-1.845l3.185,1.845L15.852,16.974z M26.575,21.086l-10.262,5.938v-8.158l2.032,2.652
		c0.09,0.119,0.228,0.182,0.367,0.182c0.078,0,0.157-0.02,0.229-0.062l7.634-4.355V21.086z M28.612,15.055l-9.778,5.581
		l-2.288-2.989l10.315-5.684L28.612,15.055z M26.951,10.777L16.669,5.608l2.921-2.585l10.489,4.721L26.951,10.777z"/>
</g>
</svg>
