<svg xmlns="http://www.w3.org/2000/svg" viewBox="0 0 22.42 22.4"><defs><style>.cls-1{fill:#454545;}</style></defs><title>Asset 1</title><g id="Layer_2" data-name="Layer 2"><g id="Layer_1-2" data-name="Layer 1"><path class="cls-1" d="M8.8,17.6A8.88,8.88,0,0,1,0,8.8,8.88,8.88,0,0,1,8.8,0a8.88,8.88,0,0,1,8.8,8.8A8.88,8.88,0,0,1,8.8,17.6Zm0-16A7.2,7.2,0,1,0,16,8.8,7.17,7.17,0,0,0,8.8,1.6Z"/><path class="cls-1" d="M15.2,14.1l7,7a.78.78,0,0,1,0,1.1.85.85,0,0,1-.6.2c-.2,0-.5,0-.6-.2l-7-7Z"/></g></g></svg>